<?xml version="1.0" encoding="UTF-8" standalone="no"?>
<!-- Created with Inkscape (http://www.inkscape.org/) -->

<svg
   width="210mm"
   height="297mm"
   viewBox="0 0 210 297"
   version="1.1"
   id="svg1"
   xml:space="preserve"
   inkscape:version="1.3 (0e150ed6c4, 2023-07-21)"
   sodipodi:docname="logo xd.svg"
   xmlns:inkscape="http://www.inkscape.org/namespaces/inkscape"
   xmlns:sodipodi="http://sodipodi.sourceforge.net/DTD/sodipodi-0.dtd"
   xmlns="http://www.w3.org/2000/svg"
   xmlns:svg="http://www.w3.org/2000/svg"><sodipodi:namedview
     id="namedview1"
     pagecolor="#505050"
     bordercolor="#eeeeee"
     borderopacity="1"
     inkscape:showpageshadow="0"
     inkscape:pageopacity="0"
     inkscape:pagecheckerboard="0"
     inkscape:deskcolor="#d1d1d1"
     inkscape:document-units="mm"
     showguides="true"
     inkscape:zoom="0.7670244"
     inkscape:cx="206.64271"
     inkscape:cy="80.179979"
     inkscape:window-width="1852"
     inkscape:window-height="1057"
     inkscape:window-x="1072"
     inkscape:window-y="-8"
     inkscape:window-maximized="1"
     inkscape:current-layer="layer1"><sodipodi:guide
       position="114.69512,197.48258"
       orientation="0,-1"
       id="guide20"
       inkscape:locked="false" /><sodipodi:guide
       position="146.41429,220.42161"
       orientation="1,0"
       id="guide21"
       inkscape:locked="false" /><sodipodi:guide
       position="86.58188,330.12724"
       orientation="0,-1"
       id="guide22"
       inkscape:locked="false" /></sodipodi:namedview><defs
     id="defs1" /><g
     inkscape:label="Layer 1"
     inkscape:groupmode="layer"
     id="layer1"><path
       id="path1"
       style="opacity:1;fill:#737373;fill-opacity:1;stroke:none;stroke-width:0.707238;stroke-linecap:round;stroke-linejoin:round;paint-order:markers fill stroke"
       d="m 56.38442,59.843924 c -1.003215,0.0074 -2.004457,0.09048 -2.995166,0.248563 l -1.233,6.229078 C 50.688029,66.645741 49.71661,67.24864 49.71661,67.24864 l -4.940268,-3.638538 c -1.841887,1.32502 -3.444143,2.954704 -4.737695,4.818828 l 3.398242,4.9413 -0.0036,0.0072 c -2.88e-4,5.46e-4 -7.8e-4,9.5e-4 -0.001,0.0016 -0.04766,0.07697 -0.09317,0.153341 -0.136943,0.228927 -0.04537,0.07835 -0.0889,0.155637 -0.130224,0.232027 -0.04132,0.07639 -0.0804,0.151861 -0.117822,0.225826 -0.03742,0.07397 -0.07331,0.146483 -0.106971,0.217558 -0.06732,0.142143 -0.127177,0.278391 -0.18035,0.406176 -0.05317,0.127786 -0.09933,0.247398 -0.139527,0.357084 -0.0402,0.109692 -0.07445,0.209274 -0.102836,0.29714 -0.02839,0.08787 -0.05097,0.164034 -0.06873,0.226343 -0.03551,0.124617 -0.05116,0.194303 -0.05116,0.194303 l -5.676656,0.933793 c -0.172063,1.019973 -0.264498,2.051803 -0.276469,3.086117 1.1e-5,1.223874 0.116489,2.419752 0.327628,3.582727 l 5.565035,0.86713 c 0.333737,1.211006 0.806153,2.01073 0.806153,2.01073 l -3.638538,4.940267 c 1.325019,1.841881 2.954699,3.444151 4.818827,4.737691 l 0.188619,-0.1297 c 4.761483,-3.263438 4.752683,-3.268538 0.144178,-0.09922 l 4.608505,-3.169318 0.0067,0.0041 c 5.4e-4,2.9e-4 0.0011,7.83e-4 0.0021,0.001 0.077,0.0477 0.153347,0.09319 0.228926,0.136943 0.0784,0.0454 0.155638,0.0889 0.232028,0.130224 0.0764,0.0413 0.151856,0.0804 0.225826,0.117822 0.074,0.0374 0.146487,0.0733 0.217557,0.106971 0.14215,0.0673 0.278397,0.12718 0.406177,0.18035 0.12779,0.0532 0.247404,0.0993 0.357084,0.13953 0.1097,0.0402 0.20928,0.0744 0.29714,0.10283 0.0879,0.0284 0.164033,0.051 0.226343,0.0687 0.124609,0.0355 0.194303,0.0512 0.194303,0.0512 l 0.933793,5.67666 c 0.292519,0.0493 0.587871,0.0775 0.882117,0.11369 l 1.215941,0.11317 c 0.329228,0.0202 0.658014,0.0458 0.988054,0.0496 1.223878,-1e-5 2.419748,-0.11649 3.582727,-0.32763 l 0.891935,-5.72317 c 0.764861,-0.23504 1.417087,-0.542683 1.895491,-0.786512 4.86e-4,-2.39e-4 0.0011,-2.77e-4 0.0016,-5.16e-4 0.565403,-0.279496 0.712201,-0.349224 0.683162,-0.353984 l 4.699972,3.355352 c 1.807448,-1.3216 3.380544,-2.942707 4.655013,-4.785756 l -3.530534,-4.730977 c 0.710739,-1.376799 0.950329,-2.578137 0.950329,-2.578137 l 5.895248,-1.128613 c 0.13639,-0.941129 0.214964,-1.900919 0.214974,-2.879928 H 69.889131 64.22436 c 0.01,0.15191 0.01555,0.304073 0.01705,0.456303 -5e-5,4.591135 -3.722053,8.312901 -8.313188,8.312671 -0.08931,-10e-7 -0.17595,-0.01064 -0.264583,-0.01344 -4.467407,-0.140969 -8.04804,-3.797608 -8.048089,-8.299235 0.0128,-0.15254 0.02986,-0.304703 0.05116,-0.456303 h -0.02584 c 0.238262,-4.3774 3.850483,-7.856835 8.28735,-7.856885 0.152543,0.01285 0.304702,0.02991 0.456303,0.05116 V 65.81927 Z M 36.455403,79.626696 c -0.01085,0.157613 0,0 0.0041,0.157096 -7.83e-4,-0.05239 -0.0038,-0.104695 -0.0041,-0.157096 z"
       sodipodi:nodetypes="cccccccccsssssssscccccccccccccssccsccccccccccscccccccccccsscccccccccc" /><circle
       style="opacity:1;fill:#747474;fill-opacity:1;stroke:none;stroke-width:0.748666;stroke-linecap:round;stroke-linejoin:round;paint-order:markers fill stroke"
       id="path17"
       cx="55.97253"
       cy="80.080544"
       r="3.5638442" /><text
       xml:space="preserve"
       style="font-style:normal;font-variant:normal;font-weight:bold;font-stretch:normal;font-size:19.4028px;font-family:Ebrima;-inkscape-font-specification:'Ebrima Bold';text-align:end;text-anchor:end;opacity:1;fill:#747474;fill-opacity:1;stroke:none;stroke-width:0.79375;stroke-linecap:round;stroke-linejoin:round;paint-order:markers fill stroke"
       x="137.38226"
       y="73.952133"
       id="text17"><tspan
         sodipodi:role="line"
         style="font-style:normal;font-variant:normal;font-weight:bold;font-stretch:normal;font-size:19.4028px;font-family:Ebrima;-inkscape-font-specification:'Ebrima Bold';text-align:end;text-anchor:end;stroke:none;stroke-width:0.79375"
         x="137.38226"
         y="73.952133"
         id="tspan19">REPARO</tspan></text><text
       xml:space="preserve"
       style="font-style:italic;font-weight:bold;font-size:19.4028px;font-family:Corbel;-inkscape-font-specification:'Corbel Bold Italic';text-align:end;text-anchor:end;opacity:1;fill:#747474;fill-opacity:1;stroke:none;stroke-width:0.79375;stroke-linecap:round;stroke-linejoin:round;paint-order:markers fill stroke"
       x="138.60107"
       y="92.096199"
       id="text20"><tspan
         sodipodi:role="line"
         id="tspan20"
         style="font-style:normal;font-variant:normal;font-weight:bold;font-stretch:normal;font-family:Ebrima;-inkscape-font-specification:'Ebrima Bold';stroke:none;stroke-width:0.79375"
         x="138.60107"
         y="92.096199">YA</tspan></text><text
       xml:space="preserve"
       style="font-style:italic;font-weight:bold;font-size:6.35px;font-family:Corbel;-inkscape-font-specification:'Corbel Bold Italic';text-align:end;text-anchor:end;opacity:1;fill:#747474;fill-opacity:1;stroke:none;stroke-width:0.79375;stroke-linecap:round;stroke-linejoin:round;paint-order:markers fill stroke"
       x="112.81812"
       y="82.915131"
       id="text21"><tspan
         sodipodi:role="line"
         id="tspan21"
         style="font-style:normal;font-variant:normal;font-weight:bold;font-stretch:normal;font-size:6.35px;font-family:Ebrima;-inkscape-font-specification:'Ebrima Bold';stroke:none;stroke-width:0.79375"
         x="112.81812"
         y="82.915131">Proveedores</tspan><tspan
         sodipodi:role="line"
         style="font-style:normal;font-variant:normal;font-weight:bold;font-stretch:normal;font-size:6.35px;font-family:Ebrima;-inkscape-font-specification:'Ebrima Bold';stroke:none;stroke-width:0.79375"
         x="112.81812"
         y="90.975235"
         id="tspan22">de servicios</tspan></text></g></svg>
